<svg xmlns="http://www.w3.org/2000/svg" width="50" height="50" viewBox="0 0 50 50">
  <g id="Group_15603" data-name="Group 15603" transform="translate(-133 -610)">
    <rect id="GettyImages_851783" width="50" height="50" rx="25" transform="translate(133 610)" fill="#e2477c"/>
    <g id="Group_68" data-name="Group 68" transform="translate(144 621)">
      <path id="Vector" d="M0,4.08V8.964a4.355,4.355,0,0,0,.156,1.212A3.786,3.786,0,0,0,4.08,13.044H7.344l3.624,2.412a.805.805,0,0,0,1.26-.672v-1.74a4.078,4.078,0,0,0,2.952-1.116,4.085,4.085,0,0,0,1.128-2.964V4.08a3.82,3.82,0,0,0-3.6-4.056C12.552.012,12.4,0,12.228,0H4.08A3.855,3.855,0,0,0,0,4.08Z" transform="translate(9.692 10.4)" fill="#fff"/>
      <path id="Vector-2" data-name="Vector" d="M5.1,16.32a5.07,5.07,0,0,1-3.7-1.4A5.07,5.07,0,0,1,0,11.22V5.1A5.1,5.1,0,0,1,5.1,0H15.3a5.1,5.1,0,0,1,5.1,5.1V6a.594.594,0,0,1-.6.6H11.772a5.874,5.874,0,0,0-5.88,5.88v3.24a.594.594,0,0,1-.6.6Z" transform="translate(2 2)" fill="#fff"/>
    </g>
  </g>
</svg>
