<svg xmlns="http://www.w3.org/2000/svg" width="122.502" height="16.161" viewBox="0 0 122.502 16.161">
  <g id="Group_15597" data-name="Group 15597" transform="translate(-84.522 51.536)">
    <path id="Path_19443" data-name="Path 19443" d="M8.834,2.625c4.8,0,8.312-3.241,8.312-7.7s-3.514-7.7-8.312-7.7S.522-9.538.522-5.077,4.036,2.625,8.834,2.625Zm0-4.019a3.351,3.351,0,0,1-3.3-3.683,3.351,3.351,0,0,1,3.3-3.683,3.351,3.351,0,0,1,3.3,3.683A3.351,3.351,0,0,1,8.834-1.394ZM23.1-8.612c0-.926.463-1.326,1.136-1.326a2.611,2.611,0,0,1,1.073.274l1.136-3.3a6.418,6.418,0,0,0-2.82-.568c-3.283,0-5.135,1.915-5.135,4.882v.063H16.915v3.472h1.578V2.289h4.756V-5.119h2.357V-8.591H23.1Zm8.123,0c0-.926.463-1.326,1.136-1.326a2.611,2.611,0,0,1,1.073.274l1.136-3.3a6.418,6.418,0,0,0-2.82-.568c-3.283,0-5.135,1.915-5.135,4.882v.063H25.037v3.472h1.578V2.289h4.756V-5.119h2.357V-8.591h-2.5Zm15.13,5.135c0-3.893-2.925-5.955-6.334-5.955C36.3-9.433,33.5-6.971,33.5-3.477c0,3.43,2.736,5.976,6.965,5.976A6.407,6.407,0,0,0,45.491.647l-2.483-2.5a3.517,3.517,0,0,1-2.4.842,2.226,2.226,0,0,1-2.315-1.347h8C46.312-2.7,46.354-3.141,46.354-3.477ZM40.062-6.192a1.786,1.786,0,0,1,1.852,1.536h-3.7A1.772,1.772,0,0,1,40.062-6.192ZM55-9.433a4.794,4.794,0,0,0-3.472,1.347V-9.222H47.007V2.289h4.756V-3.12c0-1.7.821-2.315,1.789-2.315.863,0,1.41.547,1.41,1.978V2.289h4.756V-4.277C59.717-7.9,57.654-9.433,55-9.433Zm14.12-3.893v4.882A4.008,4.008,0,0,0,66.2-9.433c-3.009,0-5.555,2.252-5.555,5.955S63.189,2.5,66.2,2.5a3.98,3.98,0,0,0,3.156-1.157v.947h4.524V-13.326ZM67.334-1.2c-1.052,0-1.873-.779-1.873-2.273s.821-2.252,1.873-2.252,1.873.758,1.873,2.252S68.387-1.2,67.334-1.2Z" transform="translate(84 -38)" fill="#212121"/>
    <path id="Path_19442" data-name="Path 19442" d="M-22.741-12.6-29.075-1.679l-6.4-10.921h-1.284V2.13h1.494V-9.591L-29.475.257h.737l5.787-9.911V2.13h1.494V-12.6ZM-8.158-3.4a5.275,5.275,0,0,0-5.366-5.619A5.331,5.331,0,0,0-18.932-3.4a5.482,5.482,0,0,0,5.808,5.64A5.449,5.449,0,0,0-8.853.426l-.842-.968A4.363,4.363,0,0,1-13.082.91a4.1,4.1,0,0,1-4.356-3.851h9.259C-8.179-3.109-8.158-3.278-8.158-3.4Zm-5.366-4.335A3.85,3.85,0,0,1-9.589-4.056h-7.849A3.845,3.845,0,0,1-13.524-7.739ZM-.309-9.023A4.652,4.652,0,0,0-4.518-6.9V-8.938H-5.949V2.13h1.494V-3.678a3.629,3.629,0,0,1,3.872-4c2.1,0,3.325,1.2,3.325,3.535V2.13H4.236V-4.288C4.236-7.465,2.384-9.023-.309-9.023Z" transform="translate(202.788 -37.842)" fill="#e2477c"/>
  </g>
</svg>
