<svg xmlns="http://www.w3.org/2000/svg" width="24" height="24" viewBox="0 0 24 24">
  <g id="icon" transform="translate(-108 -188)">
    <path id="Vector" d="M0,0H24V24H0Z" transform="translate(132 212) rotate(180)" fill="none" opacity="0"/>
    <g id="Group_7" data-name="Group 7" transform="translate(108.899 189.43)">
      <path id="Vector-2" data-name="Vector" d="M0,3.094V6.8a3.3,3.3,0,0,0,.118.919A2.872,2.872,0,0,0,3.094,9.893H5.57l2.749,1.829a.611.611,0,0,0,.956-.51V9.893a3.093,3.093,0,0,0,2.239-.846A3.1,3.1,0,0,0,12.369,6.8v-3.7A2.9,2.9,0,0,0,9.638.018C9.52.009,9.4,0,9.274,0H3.094A2.924,2.924,0,0,0,0,3.094Z" transform="translate(7.834 8.371)" fill="#808096"/>
      <path id="Vector-3" data-name="Vector" d="M3.868,12.378a3.846,3.846,0,0,1-2.8-1.065A3.846,3.846,0,0,1,0,8.51V3.868A3.865,3.865,0,0,1,3.868,0H11.6a3.865,3.865,0,0,1,3.868,3.868v.683a.451.451,0,0,1-.455.455H8.929a4.455,4.455,0,0,0-4.46,4.46v2.457a.451.451,0,0,1-.455.455Z" transform="translate(2 2)" fill="#808096"/>
    </g>
  </g>
</svg>
