<svg xmlns="http://www.w3.org/2000/svg" width="24" height="24" viewBox="0 0 24 24">
  <g id="vuesax_bold_notification" data-name="vuesax/bold/notification" transform="translate(-172 -188)">
    <g id="notification">
      <path id="Vector" d="M15.029,12.49l-1-1.66a3.715,3.715,0,0,1-.4-1.48V6.82a5.909,5.909,0,0,0-3.37-5.33A2.926,2.926,0,0,0,7.679,0a2.961,2.961,0,0,0-2.59,1.52,5.928,5.928,0,0,0-3.3,5.3V9.35a3.626,3.626,0,0,1-.4,1.47L.379,12.49a2.337,2.337,0,0,0,1.31,3.53,18.7,18.7,0,0,0,6.02.98,18.969,18.969,0,0,0,6.02-.97,2.411,2.411,0,0,0,1.3-3.54Z" transform="translate(176.311 190)" fill="#e2477c"/>
      <path id="Vector-2" data-name="Vector" d="M5.65.01A3.014,3.014,0,0,1,2.82,2,2.965,2.965,0,0,1,.7,1.11,2.761,2.761,0,0,1,0,0C.13.02.26.03.4.05c.23.03.47.06.71.08.57.05,1.15.08,1.73.08S3.98.18,4.54.13c.21-.02.42-.03.62-.06Z" transform="translate(181.18 208)" fill="#e2477c"/>
      <path id="Vector-3" data-name="Vector" d="M0,0H24V24H0Z" transform="translate(196 212) rotate(180)" fill="none" opacity="0"/>
    </g>
  </g>
</svg>
