<svg id="Group_60" data-name="Group 60" xmlns="http://www.w3.org/2000/svg" width="32" height="32" viewBox="0 0 32 32">
  <rect id="Rectangle_8" data-name="Rectangle 8" width="32" height="32" rx="6" fill="#e2477c"/>
  <g id="Group_17547" data-name="Group 17547" transform="translate(4.567 5.567)">
    <path id="Vector" d="M0,3.207V7.047A3.423,3.423,0,0,0,.123,8a2.976,2.976,0,0,0,3.085,2.255H5.773l2.849,1.9a.633.633,0,0,0,.99-.528V10.254a3.205,3.205,0,0,0,2.321-.877,3.211,3.211,0,0,0,.887-2.33V3.207A3,3,0,0,0,9.99.019C9.867.009,9.744,0,9.612,0H3.207A3.03,3.03,0,0,0,0,3.207Z" transform="translate(8.047 8.603)" fill="#fff"/>
    <path id="Vector-2" data-name="Vector" d="M4.009,12.829a3.986,3.986,0,0,1-2.905-1.1A3.986,3.986,0,0,1,0,8.82V4.009A4.006,4.006,0,0,1,4.009,0h8.018a4.006,4.006,0,0,1,4.009,4.009v.707a.467.467,0,0,1-.472.472H9.254A4.618,4.618,0,0,0,4.632,9.81v2.547a.467.467,0,0,1-.472.472Z" transform="translate(2 2)" fill="#fff"/>
  </g>
</svg>
