<svg xmlns="http://www.w3.org/2000/svg" width="20" height="20" viewBox="0 0 20 20">
  <g id="noun-laughing-1316486" transform="translate(-76.979 -15.505)">
    <circle id="Ellipse_4" data-name="Ellipse 4" cx="10" cy="10" r="10" transform="translate(76.979 15.505)" fill="#808096"/>
    <g id="Group_79" data-name="Group 79" transform="translate(79.251 20.018)">
      <path id="Path_118" data-name="Path 118" d="M4.1,3.653a.52.52,0,0,1-.251-.068L.217,1.28A.46.46,0,0,1,.012.8.463.463,0,0,1,.4.458L4.712,0A.459.459,0,1,1,4.8.915l-2.989.3,2.533,1.6a.468.468,0,0,1,.137.639.477.477,0,0,1-.388.205Z" transform="translate(8.622 3.43) rotate(-30)" fill="#edf5f9"/>
      <path id="Path_119" data-name="Path 119" d="M4.339,4.841A.663.663,0,0,1,4.133,4.8L.254,2.924A.459.459,0,1,1,.665,2.1L3.358,3.4,2.057.665A.459.459,0,1,1,2.878.254l1.871,3.9a.45.45,0,0,1-.091.525.4.4,0,0,1-.319.16Z" transform="translate(0 2.398) rotate(-30)" fill="#edf5f9"/>
      <path id="Path_120" data-name="Path 120" d="M9.11,4.7A.407.407,0,0,0,8.9,4.429L1.033.048A.385.385,0,0,0,.713.025.377.377,0,0,0,.485.253c-.023.023-1.871,4.518,1.8,6.572C5.938,8.855,9,5.068,9.042,5.045A.618.618,0,0,0,9.11,4.7Z" transform="translate(2.549 8.095) rotate(-30)" fill="#edf5f9"/>
    </g>
  </g>
</svg>
