<svg id="Group_17546" data-name="Group 17546" xmlns="http://www.w3.org/2000/svg" width="32" height="32" viewBox="0 0 32 32">
  <rect id="Rectangle_8" data-name="Rectangle 8" width="32" height="32" rx="6" fill="#fff"/>
  <path id="Path_116" data-name="Path 116" d="M128,94.752c0-4.031,3.108-7.815,7.157-9.033a.214.214,0,0,0,.2-.214V83.02a.214.214,0,0,1,.351-.165l5.8,4.791a.214.214,0,0,1,0,.33l-5.8,4.79a.214.214,0,0,1-.351-.165V90.278a.215.215,0,0,0-.225-.214c-2.984.15-5.51,3.564-6.583,6.2a.214.214,0,0,1-.408-.039A7.55,7.55,0,0,1,128,94.751Z" transform="translate(-118.793 -73.826)" fill="#e2477c" fill-rule="evenodd"/>
</svg>
